<svg xmlns="http://www.w3.org/2000/svg" viewBox="0 0 200 200" fill="none">
  <defs>
    <linearGradient id="g" x1="0" y1="0" x2="1" y2="1">
      <stop offset="0%" stop-color="#F5D060"/>
      <stop offset="50%" stop-color="#D4AF37"/>
      <stop offset="100%" stop-color="#B8942D"/>
    </linearGradient>
  </defs>
  <!-- Outer frame -->
  <rect x="15" y="10" width="170" height="180" rx="2" stroke="url(#g)" stroke-width="2" fill="none"/>
  <!-- Outer arch -->
  <path d="M35 190 L35 85 Q35 35 100 5 Q165 35 165 85 L165 190" stroke="url(#g)" stroke-width="2" fill="none"/>
  <!-- Middle arch -->
  <path d="M55 190 L55 95 Q55 52 100 25 Q145 52 145 95 L145 190" stroke="url(#g)" stroke-width="1.6" fill="none"/>
  <!-- Inner arch -->
  <path d="M72 190 L72 108 Q72 68 100 45 Q128 68 128 108 L128 190" stroke="url(#g)" stroke-width="1.3" fill="none"/>
  <!-- L -->
  <path d="M72 85 L72 160 L98 160" stroke="url(#g)" stroke-width="4" fill="none" stroke-linecap="round" stroke-linejoin="round"/>
  <!-- A -->
  <path d="M106 160 L122 85 L138 160 M110 145 L134 145" stroke="url(#g)" stroke-width="4" fill="none" stroke-linecap="round" stroke-linejoin="round"/>
</svg>
